<svg xmlns="http://www.w3.org/2000/svg" width="101" height="101" viewBox="0 0 101 101">
  <g fill="none" transform="translate(-19 -1)">
    <rect width="140" height="101" y=".94" fill="#FFF"/>
    <g fill="#000" transform="translate(19.915 26.748)">
      <path d="M.0837164501 12.3218933C.0837164501 12.4971138.223892832 12.6548122.416635356 12.6548122L1.09999522 12.6548122C1.27521569 12.6548122 1.43291412 12.4971138 1.43291412 12.3218933L1.43291412 7.5383743 6.46174181 7.5383743C6.63696229 7.5383743 6.79466072 7.38067587 6.79466072 7.20545539L6.79466072 6.69731601C6.79466072 6.52209553 6.63696229 6.3643971 6.46174181 6.3643971L1.43291412 6.3643971 1.43291412 1.56335603 7.32032215 1.56335603C7.51306467 1.56335603 7.65324106 1.4056576 7.65324106 1.23043713L7.65324106.722297744C7.65324106.547077267 7.51306467.389378838 7.32032215.389378838L.416635356.389378838C.223892832.389378838.0837164501.547077267.0837164501.722297744L.0837164501 12.3218933zM9.25650842 12.6548122L9.95739033 12.6548122C10.1150888 12.6548122 10.220221 12.5496799 10.2552651 12.4620697L11.5343746 9.57093183 17.7547016 9.57093183 19.0513331 12.4620697C19.0863772 12.5496799 19.1915095 12.6548122 19.3492079 12.6548122L20.0500898 12.6548122C20.3129205 12.6548122 20.4530969 12.4270256 20.3479646 12.199239L15.0563062.406900885C15.0037401.301768599 14.9161298.214158361 14.7584314.214158361L14.5832109.214158361C14.4255125.214158361 14.3379023.301768599 14.2853361.406900885L8.95863361 12.199239C8.85350132 12.4270256 8.99367771 12.6548122 9.25650842 12.6548122zM12.024992 8.48456488L14.5832109 2.73733323 14.7233873 2.73733323C15.5819676 4.64723643 16.4230259 6.57466168 17.2816063 8.48456488L12.024992 8.48456488zM22.8448564 12.3218933C22.8448564 12.4971138 23.0025548 12.6548122 23.1777753 12.6548122L23.8786572 12.6548122C24.0538777 12.6548122 24.2115761 12.4971138 24.2115761 12.3218933L24.2115761.722297744C24.2115761.547077267 24.0538777.389378838 23.8786572.389378838L23.1777753.389378838C23.0025548.389378838 22.8448564.547077267 22.8448564.722297744L22.8448564 12.3218933zM28.3730625 12.3218933C28.3730625 12.4971138 28.5132388 12.6548122 28.7059814 12.6548122L34.7686099 12.6548122C34.9613524 12.6548122 35.1015288 12.4971138 35.1015288 12.3218933L35.1015288 11.8137539C35.1015288 11.6385335 34.9613524 11.480835 34.7686099 11.480835L29.7222601 11.480835 29.7222601.722297744C29.7222601.547077267 29.5645617.389378838 29.3893412.389378838L28.7059814.389378838C28.5132388.389378838 28.3730625.547077267 28.3730625.722297744L28.3730625 12.3218933zM36.5120536 12.3218933C36.5120536 12.4971138 36.65223 12.6548122 36.8449725 12.6548122L43.5033507 12.6548122C43.6785711 12.6548122 43.8362696 12.4971138 43.8362696 12.3218933L43.8362696 11.848798C43.8362696 11.6735776 43.6785711 11.5158791 43.5033507 11.5158791L38.3518686 11.5158791C39.4732797 10.3243799 40.5946907 9.11535859 41.7161018 7.92385935 42.9251231 6.62722782 43.9063577 5.48829472 43.9063577 3.94635452 43.9063577 2.15910566 42.6272483.564599315 40.1215954.564599315 38.0364718.564599315 36.7924064 2.28175999 36.7924064 2.28175999 36.669752 2.42193637 36.7047961 2.6146789 36.8099284 2.73733323L37.1603694 3.07025214C37.3005458 3.21042852 37.4932883 3.21042852 37.6334647 3.07025214 38.1766481 2.49202456 39.0352285 1.75609856 40.1215954 1.75609856 41.9263664 1.75609856 42.5746821 2.9826419 42.5746821 3.98139862 42.5746821 4.80493486 41.9964545 5.85625772 40.8049553 7.15288925 39.3681474 8.69482945 37.9488615 10.2542917 36.5120536 11.7962319L36.5120536 12.3218933zM46.560948 11.4107468C46.7887346 11.6210114 48.1904984 12.8300327 50.2581 12.8300327 52.3081796 12.8300327 54.0428623 11.4983571 54.0428623 9.67606412 54.0428623 7.64350659 52.5184442 6.74988215 50.1529678 5.78616953 48.6811157 5.17289786 47.7874913 4.489538 47.7874913 3.3155608 47.7874913 2.5796348 48.3481968 1.38813556 50.2055339 1.38813556 51.2743788 1.38813556 52.3782678 2.12406156 52.5009221 2.19414975 52.7812749 2.35184818 52.9564954 2.28175999 53.1141938 2.03645132 53.184282 1.93131904 53.2543702 1.8086647 53.3244584 1.70353242 53.534723 1.37061351 53.3244584 1.16034894 53.2193261 1.10778279 53.2193261 1.10778279 51.9402166.214158361 50.2230559.214158361 47.4370504.214158361 46.4908598 2.14158361 46.4908598 3.33308285 46.4908598 5.33059629 47.6473149 6.11908844 49.5747402 6.96014673 51.5897757 7.80120501 52.6410985 8.51960897 52.6410985 9.72863026 52.6410985 10.7624311 51.71243 11.6560555 50.2931441 11.6560555 48.7336819 11.6560555 47.4545724 10.4295122 47.3319181 10.3243799 47.0866094 10.1141153 46.8938669 10.2542917 46.7186464 10.4820783 46.6310362 10.5872106 46.5434259 10.7098649 46.4558157 10.8149972 46.2455511 11.1479161 46.4207716 11.2880925 46.560948 11.4107468zM57.1705479 12.3218933C57.1705479 12.4971138 57.3107242 12.6548122 57.5034668 12.6548122L63.5660953 12.6548122C63.7588378 12.6548122 63.8990142 12.4971138 63.8990142 12.3218933L63.8990142 11.8137539C63.8990142 11.6385335 63.7588378 11.480835 63.5660953 11.480835L58.5197455 11.480835 58.5197455.722297744C58.5197455.547077267 58.3620471.389378838 58.1868266.389378838L57.5034668.389378838C57.3107242.389378838 57.1705479.547077267 57.1705479.722297744L57.1705479 12.3218933zM64.9766201 12.6548122L65.677502 12.6548122C65.8352004 12.6548122 65.9403327 12.5496799 65.9753768 12.4620697L67.2544863 9.57093183 73.4748132 9.57093183 74.7714448 12.4620697C74.8064889 12.5496799 74.9116212 12.6548122 75.0693196 12.6548122L75.7702015 12.6548122C76.0330322 12.6548122 76.1732086 12.4270256 76.0680763 12.199239L70.7764179.406900885C70.7238518.301768599 70.6362415.214158361 70.4785431.214158361L70.3033226.214158361C70.1456242.214158361 70.0580139.301768599 70.0054478.406900885L64.6787453 12.199239C64.573613 12.4270256 64.7137894 12.6548122 64.9766201 12.6548122zM67.7451036 8.48456488L70.3033226 2.73733323 70.443499 2.73733323C71.3020793 4.64723643 72.1431376 6.57466168 73.001718 8.48456488L67.7451036 8.48456488zM77.6713437 6.53961758C77.6713437 10.0440271 80.4923933 12.8300327 83.9968029 12.8300327 85.5562651 12.8300327 87.0631612 12.2868492 88.2546605 11.1303941 88.3773148 11.0077397 88.4123589 10.7624311 88.2721825 10.6572988L87.7465211 10.1842035C87.6413888 10.1141153 87.5012124 10.0965933 87.3259919 10.2367696 86.3973234 10.9376516 85.503699 11.5509232 83.9792808 11.5509232 81.2107973 11.5509232 79.0906295 9.22049088 79.0906295 6.52209553 79.0906295 3.80617814 81.2107973 1.4757458 83.9792808 1.4757458 85.1707801 1.4757458 86.4148455 2.00140723 87.3259919 2.78989937 87.5012124 2.96511985 87.6413888 2.9826419 87.7815652 2.80742142L88.2546605 2.33432613C88.3948369 2.19414975 88.3773148 1.98388518 88.2371384 1.8437088 87.0456392.82743003 85.7665297.214158361 83.9968029.214158361 80.4923933.214158361 77.6713437 3.03520804 77.6713437 6.53961758zM91.5400444 12.2342831C91.5400444 12.4620697 91.7152649 12.6548122 91.9605736 12.6548122L92.4687129 12.6548122C92.6964996 12.6548122 92.8892421 12.4620697 92.8892421 12.2342831L92.8892421 6.66227191 98.5138194 12.5321579C98.5488635 12.584724 98.7065619 12.6548122 98.8292163 12.6548122L99.7228407 12.6548122C100.108326 12.6548122 100.14337 12.2342831 100.020716 12.1116287L94.2209177 6.17165458 99.7578848 1.00265051C100.038238.739819792 99.8630171.389378838 99.5476202.389378838L98.6890399.389378838C98.5839076.389378838 98.4262092.476989076 98.356121.564599315L92.8892421 5.76864748 92.8892421.809907983C92.8892421.582121362 92.6964996.389378838 92.4687129.389378838L91.9605736.389378838C91.7152649.389378838 91.5400444.582121362 91.5400444.809907983L91.5400444 12.2342831z" transform="translate(.001 35.363)"/>
      <g transform="translate(34.087 .024)">
        <path d="M15.9976089,0.227965926 C7.28811066,0.227965926 0.227965926,7.28811066 0.227965926,15.9976089 C0.227965926,24.7071071 7.28811066,31.7676518 15.9976089,31.7676518 L31.7672518,31.7676518 L31.7672518,15.9976089 C31.7672518,7.28811066 24.7067071,0.227965926 15.9976089,0.227965926 Z M15.9976089,28.8884821 C8.87827298,28.8884821 3.10673564,23.1165448 3.10673564,15.9972089 C3.10673564,8.87787304 8.87827298,3.1063357 15.9976089,3.1063357 C23.1169448,3.1063357 28.888882,8.87787304 28.888882,15.9972089 C28.888882,23.1165448 23.1169448,28.8884821 15.9976089,28.8884821 Z"/>
        <path d="M21.3712057,19.6738594 L17.6945552,15.9976089 L21.3708058,12.3213584 C21.821748,11.8498451 21.8134379,11.1044647 21.3520955,10.6431223 C20.890753,10.1817798 20.1453727,10.1734698 19.6738594,10.624412 L15.9976089,14.3006625 L12.3213584,10.624412 C11.8498451,10.1734698 11.1044647,10.1817798 10.6431223,10.6431223 C10.1817798,11.1044647 10.1734698,11.8498451 10.624412,12.3213584 L14.3006625,15.9976089 L10.624412,19.6738594 C10.3172256,19.9761546 10.1957722,20.4199827 10.3062375,20.8365681 C10.4167027,21.2531534 10.7421133,21.5784874 11.1587247,21.6888544 C11.5753361,21.7992214 12.0191356,21.6776635 12.3213584,21.3704058 L15.9976089,17.6941553 L19.6738594,21.3704058 C20.1423478,21.839115 20.9020965,21.8392941 21.3708057,21.3708057 C21.839515,20.9023174 21.839694,20.1425686 21.3712057,19.6738594 Z"/>
      </g>
    </g>
  </g>
</svg>
