<svg xmlns="http://www.w3.org/2000/svg" width="105" height="105" viewBox="0 0 105 105">
  <g transform="translate(2.72 23)">
    <path d="M9.93272569 5.03255208C9.75043403 4.85026042 9.50954861 4.75911458 9.21006944 4.75911458 8.92361111 4.75911458 8.6859809 4.85026042 8.49717882 5.03255208 8.30837674 5.21484375 8.21397569 5.45572917 8.21397569 5.75520833L8.21397569 11.2630208C8.21397569 11.7317708 8.08702257 12.1549479 7.83311632 12.5325521 7.57921007 12.9101562 7.22764757 13.2096354 6.77842882 13.4309896 6.32921007 13.6523438 5.83116319 13.7630208 5.28428819 13.7630208 4.34678819 13.7630208 3.59483507 13.4928385 3.02842882 12.952474 2.46202257 12.4121094 2.17881944 11.6145833 2.17881944 10.5598958L2.17881944 5.75520833C2.17881944 5.46875 2.0844184 5.23111979 1.89561632 5.04231771 1.70681424 4.85351563 1.46918403 4.75911458 1.18272569 4.75911458.896267361 4.75911458.658637153 4.85351563.469835069 5.04231771.281032986 5.23111979.186631944 5.46875.186631944 5.75520833L.186631944 10.5598958C.186631944 11.6145833.388454861 12.516276.792100694 13.264974 1.19574653 14.0136719 1.75564236 14.5833333 2.47178819 14.9739583 3.18793403 15.3645833 3.99522569 15.5598958 4.89366319 15.5598958 5.54470486 15.5598958 6.15668403 15.4459635 6.72960069 15.218099 7.30251736 14.9902344 7.79730903 14.6679688 8.21397569 14.2513021L8.21397569 14.4661458C8.21397569 14.7526042 8.30837674 14.9902344 8.49717882 15.1790365 8.6859809 15.3678385 8.92361111 15.4622396 9.21006944 15.4622396 9.50954861 15.4622396 9.75043403 15.3678385 9.93272569 15.1790365 10.1150174 14.9902344 10.2061632 14.7526042 10.2061632 14.4661458L10.2061632 5.75520833C10.2061632 5.45572917 10.1150174 5.21484375 9.93272569 5.03255208zM18.4678819 13.7825521C18.3051215 13.6002604 18.1065538 13.5091146 17.8721788 13.5091146L17.2081163 13.5091146C16.7914497 13.5091146 16.4398872 13.3333333 16.1534288 12.9817708 15.8669705 12.6302083 15.7237413 12.1940104 15.7237413 11.6731771L15.7237413 6.84895833 17.3838976 6.84895833C17.6573351 6.84895833 17.8786892 6.77083333 18.0479601 6.61458333 18.2172309 6.45833333 18.3018663 6.26302083 18.3018663 6.02864583 18.3018663 5.76822917 18.2172309 5.55989583 18.0479601 5.40364583 17.8786892 5.24739583 17.6573351 5.16927083 17.3838976 5.16927083L15.7237413 5.16927083 15.7237413 2.35677083C15.7237413 2.0703125 15.6325955 1.8359375 15.4503038 1.65364583 15.2680122 1.47135417 15.0336372 1.38020833 14.7471788 1.38020833 14.4607205 1.38020833 14.2263455 1.47135417 14.0440538 1.65364583 13.8617622 1.8359375 13.7706163 2.0703125 13.7706163 2.35677083L13.7706163 5.16927083 12.8721788 5.16927083C12.5987413 5.16927083 12.3773872 5.24739583 12.2081163 5.40364583 12.0388455 5.55989583 11.9542101 5.76822917 11.9542101 6.02864583 11.9542101 6.26302083 12.0388455 6.45833333 12.2081163 6.61458333 12.3773872 6.77083333 12.5987413 6.84895833 12.8721788 6.84895833L13.7706163 6.84895833 13.7706163 11.6731771C13.7706163 12.3893229 13.9203559 13.0338542 14.2198351 13.6067708 14.5193142 14.1796875 14.9327257 14.6321615 15.4600694 14.9641927 15.9874132 15.296224 16.5700955 15.4622396 17.2081163 15.4622396L17.5596788 15.4622396C17.8982205 15.4622396 18.1749132 15.3710938 18.3897569 15.1888021 18.6046007 15.0065104 18.7120226 14.7721354 18.7120226 14.4856771 18.7120226 14.1992187 18.6306424 13.9648437 18.4678819 13.7825521zM34.7276476 5.79427083C34.031033 5.05208333 33.1163194 4.68098958 31.9835069 4.68098958 31.2673611 4.68098958 30.6163194 4.81770833 30.0303819 5.09114583 29.4444444 5.36458333 28.9561632 5.7421875 28.5655382 6.22395833 28.2269965 5.72916667 27.7940538 5.34830729 27.2667101 5.08138021 26.7393663 4.81445312 26.1436632 4.68098958 25.4796007 4.68098958 24.9327257 4.68098958 24.4249132 4.77539062 23.9561632 4.96419271 23.4874132 5.15299479 23.0837674 5.41666667 22.7452257 5.75520833 22.7322049 5.46875 22.6345486 5.23763021 22.4522569 5.06184896 22.2699653 4.88606771 22.0355903 4.79817708 21.7491319 4.79817708 21.4626736 4.79817708 21.2250434 4.88932292 21.0362413 5.07161458 20.8474392 5.25390625 20.7530382 5.49479167 20.7530382 5.79427083L20.7530382 14.4856771C20.7530382 14.7721354 20.8474392 15.0097656 21.0362413 15.1985677 21.2250434 15.3873698 21.4626736 15.4817708 21.7491319 15.4817708 22.0486111 15.4817708 22.2894965 15.3873698 22.4717882 15.1985677 22.6540799 15.0097656 22.7452257 14.7721354 22.7452257 14.4856771L22.7452257 8.97786458C22.7452257 8.24869792 22.9633247 7.64973958 23.3995226 7.18098958 23.8357205 6.71223958 24.3988715 6.47786458 25.0889757 6.47786458 25.7530382 6.47786458 26.2836372 6.68294271 26.6807726 7.09309896 27.077908 7.50325521 27.2764757 8.10546875 27.2764757 8.89973958L27.2764757 14.4856771C27.2764757 14.7721354 27.3708767 15.0097656 27.5596788 15.1985677 27.7484809 15.3873698 27.9861111 15.4817708 28.2725694 15.4817708 28.5720486 15.4817708 28.812934 15.3873698 28.9952257 15.1985677 29.1775174 15.0097656 29.2686632 14.7721354 29.2686632 14.4856771L29.2686632 8.97786458C29.2686632 8.24869792 29.4867622 7.64973958 29.9229601 7.18098958 30.359158 6.71223958 30.9157986 6.47786458 31.5928819 6.47786458 32.2569444 6.47786458 32.7875434 6.68294271 33.1846788 7.09309896 33.5818142 7.50325521 33.7803819 8.10546875 33.7803819 8.89973958L33.7803819 14.4856771C33.7803819 14.7721354 33.874783 15.0097656 34.0635851 15.1985677 34.2523872 15.3873698 34.4900174 15.4817708 34.7764757 15.4817708 35.0759549 15.4817708 35.3168403 15.3873698 35.4991319 15.1985677 35.6814236 15.0097656 35.7725694 14.7721354 35.7725694 14.4856771L35.7725694 8.89973958C35.7725694 7.57161458 35.4242622 6.53645833 34.7276476 5.79427083zM40.1866319 13.4602865C39.9197049 13.1933594 39.6039497 13.0598958 39.2393663 13.0598958 38.874783 13.0598958 38.5590278 13.1933594 38.2921007 13.4602865 38.0251736 13.7272135 37.8917101 14.0494792 37.8917101 14.4270833 37.8917101 14.7916667 38.0251736 15.1074219 38.2921007 15.374349 38.5590278 15.641276 38.874783 15.7747396 39.2393663 15.7747396 39.6169705 15.7747396 39.9359809 15.641276 40.1963976 15.374349 40.4568142 15.1074219 40.5870226 14.7916667 40.5870226 14.4270833 40.5870226 14.0494792 40.453559 13.7272135 40.1866319 13.4602865zM51.4952257 6.45833333C50.4796007 5.28645833 49.203559 4.70052083 47.6671007 4.70052083 46.6514757 4.70052083 45.7400174 4.93164062 44.9327257 5.39388021 44.125434 5.85611979 43.4971788 6.50065104 43.0479601 7.32747396 42.5987413 8.15429688 42.3741319 9.08854167 42.3741319 10.1302083 42.3741319 11.1458333 42.6052517 12.0670573 43.0674913 12.8938802 43.5297309 13.7207031 44.1710069 14.3684896 44.9913194 14.8372396 45.8116319 15.3059896 46.7361111 15.5403646 47.7647569 15.5403646 49.1710069 15.5403646 50.3428819 15.1041667 51.2803819 14.2317708 51.4366319 14.0755208 51.5147569 13.8997396 51.5147569 13.7044271 51.5147569 13.4440104 51.391059 13.2096354 51.1436632 13.0013021 50.9874132 12.8841146 50.8181424 12.8255208 50.6358507 12.8255208 50.4014757 12.8255208 50.1605903 12.9166667 49.9131944 13.0989583 49.3663194 13.5546875 48.6501736 13.7825521 47.7647569 13.7825521 47.0876736 13.7825521 46.4854601 13.6263021 45.9581163 13.3138021 45.4307726 13.0013021 45.0206163 12.5683594 44.7276476 12.014974 44.4346788 11.4615885 44.2881944 10.8333333 44.2881944 10.1302083 44.2881944 9.0234375 44.6006944 8.13476562 45.2256944 7.46419271 45.8506944 6.79361979 46.6644965 6.45833333 47.6671007 6.45833333 48.1618924 6.45833333 48.6013455 6.53971354 48.9854601 6.70247396 49.3695747 6.86523438 49.7243924 7.12239583 50.0499132 7.47395833 50.2582465 7.70833333 50.5121528 7.82552083 50.8116319 7.82552083 50.9809028 7.82552083 51.1306424 7.77994792 51.2608507 7.68880208 51.547309 7.49348958 51.6905382 7.25260417 51.6905382 6.96614583 51.6905382 6.77083333 51.625434 6.6015625 51.4952257 6.45833333zM61.8663194 5.39388021C61.0525174 4.93164062 60.1312934 4.70052083 59.1026476 4.70052083 58.0609809 4.70052083 57.1299913 4.93164062 56.3096788 5.39388021 55.4893663 5.85611979 54.8513455 6.49739583 54.3956163 7.31770833 53.9398872 8.13802083 53.7120226 9.07552083 53.7120226 10.1302083 53.7120226 11.171875 53.9398872 12.1028646 54.3956163 12.9231771 54.8513455 13.7434896 55.4893663 14.3847656 56.3096788 14.8470052 57.1299913 15.3092448 58.0609809 15.5403646 59.1026476 15.5403646 60.1443142 15.5403646 61.0720486 15.3092448 61.8858507 14.8470052 62.6996528 14.3847656 63.3344184 13.7434896 63.7901476 12.9231771 64.2458767 12.1028646 64.4737413 11.171875 64.4737413 10.1302083 64.4737413 9.07552083 64.2426215 8.13802083 63.7803819 7.31770833 63.3181424 6.49739583 62.6801215 5.85611979 61.8663194 5.39388021zM57.3155382 6.92708333C57.8428819 6.61458333 58.4385851 6.45833333 59.1026476 6.45833333 59.7667101 6.45833333 60.3624132 6.61458333 60.8897569 6.92708333 61.4171007 7.23958333 61.8272569 7.67578125 62.1202257 8.23567708 62.4131944 8.79557292 62.5596788 9.42708333 62.5596788 10.1302083 62.5596788 10.8333333 62.4131944 11.4615885 62.1202257 12.014974 61.8272569 12.5683594 61.4171007 13.0013021 60.8897569 13.3138021 60.3624132 13.6263021 59.7667101 13.7825521 59.1026476 13.7825521 58.4385851 13.7825521 57.8428819 13.6263021 57.3155382 13.3138021 56.7881944 13.0013021 56.374783 12.5683594 56.0753038 12.014974 55.7758247 11.4615885 55.6260851 10.8333333 55.6260851 10.1302083 55.6260851 9.42708333 55.7758247 8.79557292 56.0753038 8.23567708 56.374783 7.67578125 56.7881944 7.23958333 57.3155382 6.92708333zM76.9835069.481770833C76.8012153.299479167 76.5603299.208333333 76.2608507.208333333 75.9743924.208333333 75.7367622.299479167 75.5479601.481770833 75.359158.6640625 75.2647569.904947917 75.2647569 1.20442708L75.2647569 6.47786458C74.8090278 5.91796875 74.2556424 5.48177083 73.6046007 5.16927083 72.953559 4.85677083 72.250434 4.70052083 71.4952257 4.70052083 70.5577257 4.70052083 69.7081163 4.93489583 68.9463976 5.40364583 68.1846788 5.87239583 67.5857205 6.52018229 67.1495226 7.34700521 66.7133247 8.17382812 66.4952257 9.09505208 66.4952257 10.1106771 66.4952257 11.1263021 66.7296007 12.047526 67.1983507 12.874349 67.6671007 13.7011719 68.3148872 14.3522135 69.1417101 14.827474 69.968533 15.3027344 70.8832465 15.5403646 71.8858507 15.5403646 72.8884549 15.5403646 73.796658 15.3027344 74.6104601 14.827474 75.4242622 14.3522135 76.0687934 13.7011719 76.5440538 12.874349 77.0193142 12.047526 77.2569444 11.1263021 77.2569444 10.1106771L77.2569444 1.20442708C77.2569444.904947917 77.1657986.6640625 76.9835069.481770833zM73.6534288 13.3040365C73.1260851 13.6230469 72.5368924 13.7825521 71.8858507 13.7825521 71.234809 13.7825521 70.6456163 13.6230469 70.1182726 13.3040365 69.5909288 12.985026 69.1742622 12.5455729 68.8682726 11.9856771 68.562283 11.4257812 68.4092882 10.8007813 68.4092882 10.1106771 68.4092882 9.42057292 68.562283 8.79882813 68.8682726 8.24544271 69.1742622 7.69205729 69.5909288 7.25585938 70.1182726 6.93684896 70.6456163 6.61783854 71.234809 6.45833333 71.8858507 6.45833333 72.5368924 6.45833333 73.1260851 6.61783854 73.6534288 6.93684896 74.1807726 7.25585938 74.594184 7.69205729 74.8936632 8.24544271 75.1931424 8.79882813 75.3428819 9.42057292 75.3428819 10.1106771 75.3428819 10.8007813 75.1931424 11.4257812 74.8936632 11.9856771 74.594184 12.5455729 74.1807726 12.985026 73.6534288 13.3040365zM89.7081163 10.5696615C89.8773872 10.406901 89.9620226 10.2018229 89.9620226 9.95442708 89.9620226 8.92578125 89.7667101 8.01432292 89.3760851 7.22005208 88.9854601 6.42578125 88.4255642 5.80729167 87.6963976 5.36458333 86.9672309 4.921875 86.1013455 4.70052083 85.0987413 4.70052083 84.0831163 4.70052083 83.1749132 4.93164062 82.3741319 5.39388021 81.5733507 5.85611979 80.9483507 6.50065104 80.4991319 7.32747396 80.0499132 8.15429688 79.8253038 9.08854167 79.8253038 10.1302083 79.8253038 11.171875 80.062934 12.1028646 80.5381944 12.9231771 81.0134549 13.7434896 81.6742622 14.3847656 82.5206163 14.8470052 83.3669705 15.3092448 84.3240017 15.5403646 85.3917101 15.5403646 85.9906684 15.5403646 86.6189236 15.4296875 87.2764757 15.2083333 87.9340278 14.9869792 88.484158 14.7005208 88.9268663 14.3489583 89.1351997 14.1927083 89.2393663 13.9973958 89.2393663 13.7630208 89.2393663 13.515625 89.1221788 13.2942708 88.8878038 13.0989583 88.7445747 12.96875 88.5492622 12.9036458 88.3018663 12.9036458 88.0544705 12.9036458 87.8396267 12.9752604 87.6573351 13.1184896 87.3838976 13.3268229 87.0355903 13.5026042 86.6124132 13.6458333 86.1892361 13.7890625 85.7823351 13.8606771 85.3917101 13.8606771 84.4021267 13.8606771 83.5655382 13.5807292 82.8819444 13.0208333 82.1983507 12.4609375 81.7849392 11.7252604 81.6417101 10.8138021L89.0635851 10.8138021C89.3240017 10.8138021 89.5388455 10.7324219 89.7081163 10.5696615zM82.7842882 7.16145833C83.3767361 6.640625 84.1482205 6.38020833 85.0987413 6.38020833 85.9581163 6.38020833 86.6547309 6.640625 87.1885851 7.16145833 87.7224392 7.68229167 88.0479601 8.37890625 88.1651476 9.25130208L81.6612413 9.25130208C81.8174913 8.37890625 82.1918403 7.68229167 82.7842882 7.16145833zM98.1260851 5.11067708C97.4555122 4.83723958 96.6970486 4.70052083 95.8506944 4.70052083 95.1605903 4.70052083 94.5095486 4.81119792 93.8975694 5.03255208 93.2855903 5.25390625 92.7907986 5.5859375 92.4131944 6.02864583 92.0355903 6.47135417 91.8467882 7.01171875 91.8467882 7.64973958 91.8467882 9.22526042 93.0967882 10.2539062 95.5967882 10.7356771 96.5603299 10.9179688 97.2439236 11.1425781 97.6475694 11.4095052 98.0512153 11.6764323 98.2530382 12.0117188 98.2530382 12.4153646 98.2530382 12.8320312 98.0479601 13.1640625 97.6378038 13.4114583 97.2276476 13.6588542 96.6514757 13.7825521 95.9092882 13.7825521 95.3493924 13.7825521 94.8220486 13.6816406 94.3272569 13.4798177 93.8324653 13.2779948 93.4613715 13.0403646 93.2139757 12.7669271 92.9796007 12.5325521 92.7322049 12.4153646 92.4717882 12.4153646 92.2634549 12.4153646 92.0355903 12.5065104 91.7881944 12.6888021 91.5277778 12.8841146 91.3975694 13.1380208 91.3975694 13.4505208 91.3975694 13.6848958 91.4822049 13.8867188 91.6514757 14.0559896 92.094184 14.4986979 92.7061632 14.8567708 93.4874132 15.1302083 94.2686632 15.4036458 95.1019965 15.5403646 95.9874132 15.5403646 96.8728299 15.5403646 97.6312934 15.4003906 98.2628038 15.1204427 98.8943142 14.8404948 99.3728299 14.4563802 99.6983507 13.968099 100.023872 13.4798177 100.186632 12.9361979 100.186632 12.3372396 100.186632 11.5299479 99.890408 10.8723958 99.2979601 10.3645833 98.7055122 9.85677083 97.6996528 9.45963542 96.2803819 9.17317708 95.5902778 9.02994792 95.062934 8.88346354 94.6983507 8.73372396 94.3337674 8.58398438 94.0863715 8.42122396 93.9561632 8.24544271 93.8259549 8.06966146 93.7608507 7.8515625 93.7608507 7.59114583 93.7608507 7.2265625 93.952908 6.94335938 94.3370226 6.74153646 94.7211372 6.53971354 95.2126736 6.43880208 95.8116319 6.43880208 96.3324653 6.43880208 96.7751736 6.50065104 97.1397569 6.62434896 97.5043403 6.74804687 97.8493924 6.95963542 98.1749132 7.25911458 98.4483507 7.50651042 98.7543403 7.63020833 99.0928819 7.63020833 99.3142361 7.63020833 99.4965278 7.578125 99.6397569 7.47395833 99.8611111 7.29166667 99.9717882 7.08984375 99.9717882 6.86848958 99.9717882 6.66015625 99.8871528 6.45182292 99.7178819 6.24348958 99.3272569 5.76171875 98.796658 5.38411458 98.1260851 5.11067708z" transform="translate(.093 43.378)"/>
    <g transform="translate(32.767)">
      <path d="M23.3496094,0 C20.2363281,0 17.317627,1.36206055 15.1772461,3.30786133 C16.7338867,3.69702148 18.0959473,4.28076172 19.2634277,5.05908203 C20.4309082,4.28076172 21.7929687,3.89160156 23.3496094,3.89160156 C27.6303711,3.89160156 31.1328125,7.39404297 31.1328125,11.6748047 L31.1328125,21.4038086 C31.1328125,25.6845703 27.6303711,29.1870117 23.3496094,29.1870117 C19.0688477,29.1870117 15.5664062,25.6845703 15.5664062,21.4038086 L15.5664062,14.5935059 C14.5935059,13.4260254 13.2314453,12.6477051 11.6748047,12.6477051 L11.6748047,21.4038086 C11.6748047,27.8249512 16.9284668,33.0786133 23.3496094,33.0786133 C29.770752,33.0786133 35.0244141,27.8249512 35.0244141,21.4038086 L35.0244141,11.6748047 C35.0244141,5.25366211 29.770752,0 23.3496094,0 Z"/>
      <path d="M11.6748047,38.9160156 C14.7880859,38.9160156 17.7067871,37.5539551 19.847168,35.6081543 C18.2905273,35.2189941 16.9284668,34.6352539 15.7609863,33.8569336 C14.5935059,34.6352539 13.2314453,35.0244141 11.6748047,35.0244141 C7.39404297,35.0244141 3.89160156,31.5219727 3.89160156,27.2412109 L3.89160156,17.512207 C3.89160156,13.2314453 7.39404297,9.72900391 11.6748047,9.72900391 C15.9555664,9.72900391 19.4580078,13.2314453 19.4580078,17.512207 L19.4580078,24.3225098 C20.4309082,25.4899902 21.7929687,26.2683105 23.3496094,26.2683105 L23.3496094,17.512207 C23.3496094,11.0910645 18.0959473,5.83740234 11.6748047,5.83740234 C5.25366211,5.83740234 0,11.0910645 0,17.512207 L0,27.2412109 C0,33.6623535 5.25366211,38.9160156 11.6748047,38.9160156 Z"/>
    </g>
  </g>
</svg>
